<svg xmlns="http://www.w3.org/2000/svg" xmlns:xlink="http://www.w3.org/1999/xlink" id="Layer_1" x="0px" y="0px" viewBox="0 0 147 47" style="enable-background:new 0 0 147 47;" xml:space="preserve"><style type="text/css">	.st0{fill:#5D5D5D;}	.st1{fill:#008931;}	.st2{fill:#0CD6CB;}	.st3{fill:#12F31D;}	.st4{fill:url(#SVGID_1_);}	.st5{fill:url(#SVGID_00000023990967640120063720000006988991405782075560_);}	.st6{fill:url(#SVGID_00000078730294664128387700000009511140940367736722_);}	.st7{fill:url(#SVGID_00000014622295247808181320000011733066409723009933_);}	.st8{fill:url(#SVGID_00000036237633612863364670000003727339698366874242_);}	.st9{fill:url(#SVGID_00000070832731273037039440000004029603955906209412_);}	.st10{fill:url(#SVGID_00000072253986586372791080000005272896050649115032_);}	.st11{fill:url(#SVGID_00000103978152507259436770000005496865363404580536_);}	.st12{fill:#FFFFFF;}	.st13{fill:url(#SVGID_00000155132798520831687520000008710398902181279158_);}	.st14{fill:url(#SVGID_00000108988219045631750760000008470516047951224976_);}</style><g>	<g>		<g>			<path d="M59.3,19.2c-0.1,1.6-0.8,2.9-1.8,3.8c-1.1,0.9-2.6,1.3-4.4,1.3c-2.1,0-3.7-0.7-4.8-1.9c-1.1-1.2-1.7-3-1.7-5.3    c0-2.4,0.6-4.2,1.7-5.5c1.2-1.3,2.8-1.9,5-1.9c1.8,0,3.2,0.4,4.2,1.3c1,0.9,1.6,2.1,1.7,3.6h-1.7c-0.7,0-1.1-0.3-1.4-0.8    c-0.2-0.4-0.4-0.7-0.7-0.9c-0.5-0.4-1.3-0.6-2.1-0.6c-1.2,0-2.2,0.4-2.9,1.2c-0.7,0.8-1,2-1,3.5c0,1.5,0.3,2.7,1,3.5    c0.6,0.8,1.6,1.3,2.8,1.3c0.9,0,1.6-0.2,2.1-0.7c0.5-0.4,0.9-1,1.1-2L59.3,19.2L59.3,19.2z"></path>			<path d="M67.6,23.5c-0.6,0.3-1.2,0.5-1.8,0.5c-0.7,0.1-1.2,0.1-1.7,0.1c-1,0-1.8-0.3-2.5-0.8c-0.7-0.5-1.1-1.4-1.1-2.6    c0-1.1,0.3-2,1-2.4c0.7-0.5,1.5-0.8,2.5-1c0.1,0,0.3,0,0.5-0.1s0.4-0.1,0.7-0.1c1.2-0.1,1.8-0.5,1.8-1c0-0.4-0.2-0.7-0.6-0.8    c-0.4-0.1-0.8-0.2-1.2-0.2c-0.4,0-0.7,0.1-1,0.2c-0.3,0.1-0.5,0.3-0.7,0.6h-2.7c0.1-0.8,0.5-1.5,1.1-2.1c0.7-0.6,1.8-0.9,3.1-0.9    c1.5,0,2.6,0.3,3.4,0.8c0.8,0.5,1.2,1.3,1.2,2.2v3.7c0,1.1-0.2,1.9-0.6,2.5C68.6,22.8,68.1,23.3,67.6,23.5z M67,18.6    c-0.4,0.2-0.9,0.4-1.6,0.5l-0.9,0.2c-0.5,0.1-0.8,0.3-1,0.5c-0.2,0.3-0.3,0.6-0.3,0.9c0,0.4,0.1,0.7,0.4,1c0.3,0.2,0.6,0.3,1,0.3    c0.8,0,1.3-0.2,1.8-0.7c0.4-0.4,0.7-1,0.7-1.8L67,18.6L67,18.6z"></path>			<path d="M70.9,10.1h1.4c0.4,0,0.7,0.1,1,0.4c0.3,0.3,0.4,0.6,0.4,0.9V24h-2.8V10.1L70.9,10.1z"></path>			<path d="M75.2,10.1h1.4c0.4,0,0.7,0.1,1,0.4c0.3,0.3,0.4,0.6,0.4,0.9V24h-2.8V10.1z"></path>			<path d="M79.6,10.1h1.4c0.4,0,0.7,0.1,1,0.4c0.3,0.3,0.4,0.6,0.4,1v0.8h-2.8V10.1z M79.6,13.3h1.4c0.4,0,0.7,0.1,1,0.4    c0.3,0.3,0.4,0.6,0.4,1V24h-2.8V13.3z"></path>			<path d="M91,23.4v-0.7c-0.5,0.8-1.1,1.2-2,1.4s-1.6,0.1-2.5-0.2c-0.8-0.3-1.5-0.9-2.1-1.8c-0.6-0.9-0.9-2-0.9-3.4    c0-1.7,0.4-3,1.2-4c0.8-1,2-1.6,3.7-1.6c1.3,0,2.5,0.4,3.6,1c1.1,0.7,1.7,2,1.7,3.9v5.7c0,1.9-0.5,3.2-1.7,3.9    c-1.1,0.7-2.3,1-3.6,1c-2.5,0-4-1.2-4.6-3.5h2.9c0.2,0.4,0.5,0.7,1,0.9c0.4,0.2,0.9,0.3,1.3,0.1c0.4-0.1,0.8-0.4,1.2-0.8    C90.8,24.8,91,24.2,91,23.4z M86.4,18.7c0,1.8,0.5,2.9,1.6,3.1c1.1,0.2,1.9,0,2.4-0.8c0.3-0.3,0.4-0.8,0.5-1.4    c0.1-0.6,0.1-1.3,0-1.9c-0.1-0.6-0.3-1.2-0.7-1.7c-0.4-0.5-0.9-0.7-1.5-0.7c-0.9,0-1.5,0.3-1.8,1C86.6,17.1,86.4,17.9,86.4,18.7z    "></path>			<path d="M96.5,23c-0.5-0.5-1-1.2-1.2-2c-0.3-0.8-0.4-1.7-0.4-2.6c0-0.7,0.1-1.4,0.3-2.2c0.2-0.7,0.5-1.3,0.9-1.8    c0.7-0.8,1.6-1.3,2.7-1.4c1.1-0.1,2.1-0.1,3,0.3c1,0.4,1.8,1.1,2.2,2.1c0.5,0.9,0.7,1.9,0.7,3.1c0,0.9-0.1,1.6-0.3,2.2    c-0.2,0.6-0.4,1.2-0.7,1.6c-0.7,0.9-1.5,1.4-2.5,1.7c-0.9,0.3-1.8,0.3-2.7,0.1C97.7,23.9,97,23.5,96.5,23z M98.4,15.9    c-0.6,0.6-0.8,1.6-0.8,2.8c0,1.2,0.3,2.1,0.7,2.6c0.1,0.2,0.4,0.4,0.8,0.5c0.4,0.1,0.8,0.1,1.2,0c0.4-0.1,0.8-0.4,1.1-0.9    c0.3-0.5,0.5-1.3,0.5-2.3c0-1-0.1-1.7-0.5-2.2c-0.3-0.5-0.7-0.8-1.1-0.9c-0.4-0.1-0.8-0.1-1.2,0C98.9,15.6,98.6,15.7,98.4,15.9z"></path>			<path d="M108.2,24V12.6h-4.1v-1c0-0.4,0.1-0.8,0.4-1c0.3-0.3,0.6-0.4,1-0.4h9.6v2.5h-4.1V24H108.2z"></path>			<path d="M121.6,20.7h2c-0.3,1.1-0.9,2-1.7,2.6c-0.8,0.6-1.9,0.9-3.1,0.9c-1.5,0-2.7-0.5-3.6-1.5c-0.9-1-1.3-2.3-1.3-4.2    c0-1.7,0.4-3.1,1.3-4c0.9-1,2.1-1.5,3.6-1.5c1.6,0,2.9,0.5,3.8,1.4c0.9,1,1.3,2.4,1.3,4.2c0,0.1,0,0.2,0,0.3s0,0.1,0,0.1    c0,0.1,0,0.2,0,0.3h-7c0,0.8,0.2,1.4,0.6,1.8c0.4,0.4,0.9,0.7,1.6,0.7c0.5,0,0.8-0.1,1.2-0.3c0.1,0,0.1-0.1,0.2-0.1    c0.1-0.1,0.1-0.1,0.2-0.2c0-0.1,0.1-0.2,0.3-0.3C121,20.8,121.2,20.7,121.6,20.7z M116.7,17.5h4.1c-0.1-0.7-0.3-1.3-0.6-1.6    c-0.4-0.4-0.9-0.6-1.5-0.6c-0.6,0-1.1,0.2-1.4,0.6C116.9,16.3,116.8,16.8,116.7,17.5z"></path>			<path d="M132.7,20.7h2c-0.3,1.1-0.9,2-1.7,2.6c-0.8,0.6-1.9,0.9-3.1,0.9c-1.5,0-2.7-0.5-3.6-1.5c-0.9-1-1.3-2.3-1.3-4.2    c0-1.7,0.4-3.1,1.3-4c0.9-1,2.1-1.5,3.6-1.5c1.6,0,2.9,0.5,3.8,1.4c0.5,0.6,0.8,1.3,1,2.1h-2.8c-0.1-0.3-0.3-0.5-0.4-0.6    c-0.4-0.4-0.8-0.6-1.5-0.6c-0.6,0-1.1,0.2-1.4,0.6c-0.5,0.5-0.7,1.4-0.7,2.7c0,1.2,0.3,2.1,0.7,2.6c0.4,0.4,0.9,0.7,1.6,0.7    c0.5,0,0.9-0.1,1.2-0.3c0.1,0,0.1-0.1,0.2-0.1c0.1-0.1,0.1-0.1,0.2-0.2c0-0.1,0.2-0.2,0.3-0.3C132.2,20.8,132.4,20.7,132.7,20.7z    "></path>			<path d="M142.7,16.3c-0.4-0.6-0.9-0.8-1.7-0.8c-0.8,0-1.3,0.3-1.7,0.8c-0.4,0.5-0.6,1.3-0.6,2.2V24H136V10.1h1.4    c0.4,0,0.7,0.1,1,0.4c0.3,0.3,0.4,0.6,0.4,1v3.2c0.5-0.8,1.2-1.3,2.1-1.5c0.9-0.2,1.7-0.2,2.5,0.1c0.8,0.3,1.4,0.8,1.9,1.5    s0.8,1.7,0.8,2.9V24h-2.7v-5.6c0-0.4,0-0.8-0.1-1.1C143.1,17,143,16.6,142.7,16.3z"></path>		</g>		<g>			<path class="st0" d="M47.6,35.5v-7.4h0.7v3.3h2.3v-3.3h0.7v7.4h-0.7v-3.6h-2.3v3.6H47.6z"></path>			<path class="st0" d="M53.1,29.5v-0.9h0.7v0.9H53.1z M53.1,35.5v-5.3h0.7v5.3H53.1z"></path>			<path class="st0" d="M56.7,37.2c-0.3,0-0.5,0-0.7,0c-0.2,0-0.4-0.1-0.6-0.1c-0.2-0.1-0.3-0.1-0.4-0.3c-0.1-0.1-0.1-0.3-0.1-0.4    c0-0.3,0.1-0.5,0.3-0.7c0.2-0.2,0.4-0.4,0.6-0.5c-0.1,0-0.3-0.1-0.4-0.2c-0.1-0.1-0.2-0.2-0.2-0.3c0-0.3,0.2-0.6,0.6-1    c-0.4-0.3-0.7-0.9-0.7-1.6c0-0.3,0-0.5,0.1-0.7c0.1-0.2,0.1-0.4,0.3-0.6c0.1-0.2,0.3-0.3,0.5-0.4c0.2-0.1,0.4-0.1,0.7-0.1    c0.5,0,0.9,0.2,1.1,0.7c0-0.1,0.1-0.2,0.3-0.3c0.1-0.1,0.3-0.2,0.4-0.3l0.1-0.1l0.2,0.5c-0.1,0-0.3,0.1-0.5,0.2    c-0.2,0.1-0.3,0.2-0.4,0.3c0,0.1,0.1,0.3,0.1,0.4s0,0.4,0,0.5c0,0.6-0.1,1-0.4,1.3c-0.2,0.3-0.6,0.5-1.1,0.5c-0.1,0-0.2,0-0.3,0    c-0.1,0-0.2,0-0.3-0.1c0,0,0,0.1-0.1,0.1c-0.1,0.1-0.1,0.1-0.1,0.2c0,0-0.1,0.1-0.1,0.2c0,0.1,0,0.1,0,0.2c0,0.1,0.1,0.1,0.4,0.2    c0.1,0,0.2,0,0.4,0.1c0.2,0,0.4,0.1,0.4,0.1c0.4,0.1,0.8,0.2,1,0.4c0.2,0.2,0.3,0.5,0.3,0.8c0,0.4-0.1,0.7-0.4,0.9    C57.6,37.1,57.2,37.2,56.7,37.2z M56.7,36.7c0.3,0,0.6-0.1,0.8-0.2c0.2-0.1,0.3-0.3,0.3-0.5c0-0.2-0.1-0.3-0.2-0.4    c-0.1-0.1-0.4-0.2-0.8-0.3l-0.7-0.1c-0.4,0.3-0.7,0.6-0.7,0.9c0,0.2,0.1,0.4,0.3,0.4C56,36.7,56.3,36.7,56.7,36.7z M56.7,33.4    c0.1,0,0.3,0,0.4-0.1c0.1-0.1,0.2-0.1,0.3-0.2c0.1-0.1,0.1-0.2,0.1-0.3c0-0.1,0.1-0.3,0.1-0.4c0-0.1,0-0.3,0-0.4    c0-0.9-0.3-1.4-0.9-1.4c-0.1,0-0.3,0-0.4,0.1c-0.1,0.1-0.2,0.1-0.3,0.2s-0.1,0.2-0.1,0.3c0,0.1-0.1,0.3-0.1,0.4s0,0.3,0,0.4    C55.8,32.9,56.1,33.4,56.7,33.4z"></path>			<path class="st0" d="M59.7,35.5v-7.4h0.7v2.7c0.4-0.4,0.8-0.7,1.3-0.7c0.3,0,0.5,0.1,0.6,0.3c0.1,0.2,0.2,0.5,0.2,0.8v4.2h-0.7    v-4.1c0-0.3,0-0.5-0.1-0.6c-0.1-0.1-0.2-0.2-0.4-0.2c-0.3,0-0.6,0.1-0.9,0.5v4.3L59.7,35.5L59.7,35.5z"></path>			<path class="st0" d="M66.4,35.5v-7.4h1.8c0.3,0,0.6,0,0.8,0.1c0.2,0.1,0.4,0.2,0.5,0.4s0.2,0.4,0.3,0.6c0.1,0.2,0.1,0.5,0.1,0.8    c0,0.3,0,0.5-0.1,0.8c-0.1,0.2-0.1,0.4-0.3,0.6c-0.1,0.2-0.3,0.3-0.5,0.4C68.8,32,68.5,32,68.2,32h-1.1v3.5L66.4,35.5L66.4,35.5z     M67.1,31.5H68c0.4,0,0.8-0.1,1-0.3c0.2-0.2,0.3-0.6,0.3-1.1c0-0.6-0.1-0.9-0.3-1.2c-0.2-0.2-0.5-0.3-1-0.3h-0.9L67.1,31.5    L67.1,31.5z"></path>			<path class="st0" d="M72.5,35.6c-0.5,0-0.9-0.1-1.1-0.5c-0.2-0.3-0.3-0.8-0.3-1.6v-1.3c0-0.5,0-0.9,0.1-1.2    c0.1-0.3,0.3-0.5,0.5-0.7c0.2-0.1,0.5-0.2,0.8-0.2c0.2,0,0.4,0,0.6,0.1c0.1,0.1,0.3,0.1,0.4,0.3s0.2,0.3,0.3,0.4s0.1,0.4,0.1,0.6    c0,0.2,0,0.5,0,0.8v0.5h-2.2v0.8c0,0.5,0,0.9,0.1,1.2c0.1,0.2,0.3,0.3,0.6,0.3c0.2,0,0.4-0.1,0.5-0.2c0.1-0.1,0.2-0.4,0.2-0.8    v-0.4h0.7v0.3c0,0.5-0.1,0.9-0.3,1.2C73.3,35.4,72.9,35.6,72.5,35.6z M71.7,32.4h1.5V32c0-0.2,0-0.3,0-0.5c0-0.1,0-0.3-0.1-0.4    c0-0.1-0.1-0.2-0.1-0.3c0-0.1-0.1-0.1-0.2-0.1c-0.1,0-0.2-0.1-0.3-0.1c-0.3,0-0.5,0.1-0.6,0.3c-0.1,0.2-0.2,0.6-0.2,1.1V32.4    L71.7,32.4z"></path>			<path class="st0" d="M75.3,35.5v-5.3h0.7v0.7c0.1-0.3,0.4-0.5,0.6-0.6c0.2-0.1,0.4-0.2,0.7-0.2c0,0,0.1,0,0.1,0v0.7    c-0.1,0-0.2-0.1-0.3-0.1c-0.4,0-0.8,0.2-1,0.6v4H75.3L75.3,35.5z"></path>			<path class="st0" d="M78.7,35.5v-4.8H78v-0.5h0.7v-0.5c0-0.1,0-0.3,0-0.4c0-0.1,0-0.2,0-0.3c0-0.1,0-0.2,0.1-0.3    c0-0.1,0.1-0.1,0.2-0.2c0.1-0.1,0.1-0.1,0.3-0.1c0.1,0,0.2,0,0.4,0s0.3,0,0.5,0.1V29c-0.2,0-0.3,0-0.4,0c-0.2,0-0.3,0.1-0.4,0.2    c-0.1,0.1-0.1,0.3-0.1,0.6v0.6h0.9v0.5h-0.9v4.8L78.7,35.5L78.7,35.5z"></path>			<path class="st0" d="M83.3,35.5c-0.2,0.1-0.4,0.1-0.7,0.1c-0.3,0-0.5,0-0.7-0.1c-0.2-0.1-0.3-0.2-0.4-0.4    c-0.1-0.2-0.2-0.4-0.2-0.6c0-0.3-0.1-0.5-0.1-0.9v-1.4c0-0.7,0.1-1.2,0.3-1.5c0.2-0.3,0.6-0.5,1.1-0.5s0.9,0.1,1.1,0.5    c0.2,0.3,0.3,0.8,0.3,1.5v1.4c0,0.3,0,0.6-0.1,0.9c0,0.3-0.1,0.4-0.2,0.6C83.6,35.2,83.5,35.4,83.3,35.5z M82.6,35.1    c0.1,0,0.3,0,0.3-0.1c0.1,0,0.1-0.1,0.2-0.2c0-0.1,0.1-0.2,0.1-0.3c0-0.1,0-0.3,0-0.4c0-0.1,0-0.3,0-0.5v-1.5c0-0.2,0-0.4,0-0.5    s0-0.3,0-0.4c0-0.1-0.1-0.3-0.1-0.3c0-0.1-0.1-0.1-0.2-0.2c-0.1,0-0.2-0.1-0.3-0.1c-0.1,0-0.2,0-0.3,0c-0.1,0-0.1,0.1-0.2,0.1    c0,0.1-0.1,0.1-0.1,0.2c0,0.1,0,0.2-0.1,0.3c0,0.1,0,0.3,0,0.3c0,0.1,0,0.3,0,0.4v1.5c0,0.1,0,0.3,0,0.4s0,0.2,0,0.3    c0,0.1,0,0.2,0.1,0.3c0,0.1,0.1,0.1,0.1,0.2c0,0.1,0.1,0.1,0.2,0.1C82.4,35.1,82.5,35.1,82.6,35.1z"></path>			<path class="st0" d="M85.4,35.5v-5.3h0.7v0.7c0.1-0.3,0.4-0.5,0.6-0.6c0.2-0.1,0.4-0.2,0.7-0.2c0,0,0.1,0,0.1,0v0.7    c-0.1,0-0.2-0.1-0.3-0.1c-0.4,0-0.8,0.2-1,0.6v4H85.4L85.4,35.5z"></path>			<path class="st0" d="M88.5,35.5v-5.3h0.6v0.5c0.4-0.4,0.8-0.6,1.2-0.6c0.4,0,0.7,0.2,0.8,0.7c0.4-0.5,0.8-0.7,1.3-0.7    c0.3,0,0.5,0.1,0.7,0.3c0.2,0.2,0.3,0.5,0.3,0.9v4.2h-0.7v-4.2c0-0.3,0-0.5-0.1-0.6c-0.1-0.1-0.2-0.2-0.4-0.2    c-0.3,0-0.7,0.2-1,0.5c0,0.1,0,0.1,0,0.2v4.2h-0.6v-4.2c0-0.3,0-0.5-0.1-0.6c-0.1-0.1-0.2-0.2-0.4-0.2c-0.3,0-0.7,0.2-1,0.5v4.4    L88.5,35.5L88.5,35.5z"></path>			<path class="st0" d="M95.8,35.6c-0.3,0-0.6-0.1-0.8-0.3c-0.2-0.2-0.3-0.5-0.3-0.8c0-0.2,0-0.3,0-0.5c0-0.1,0.1-0.3,0.2-0.4    c0.1-0.1,0.2-0.2,0.3-0.3c0.1-0.1,0.2-0.2,0.4-0.3c0.2-0.1,0.4-0.2,0.5-0.3c0.2-0.1,0.4-0.2,0.7-0.3v-0.4c0-0.5,0-0.8-0.1-1    s-0.3-0.3-0.5-0.3c-0.5,0-0.7,0.3-0.7,0.9v0.2l-0.7,0c0-0.1,0-0.1,0-0.1c0-0.5,0.1-0.9,0.4-1.1c0.2-0.2,0.6-0.3,1.1-0.3    c0.5,0,0.8,0.1,1,0.4c0.2,0.3,0.3,0.7,0.3,1.3v2.6c0,0.4,0,0.8,0,1H97l-0.1-0.7c-0.1,0.2-0.2,0.4-0.4,0.6    C96.3,35.5,96.1,35.6,95.8,35.6z M96,35c0.2,0,0.3-0.1,0.5-0.2c0.1-0.1,0.3-0.3,0.4-0.4v-1.6c0,0,0,0-0.1,0    c-0.1,0.1-0.3,0.1-0.3,0.2c-0.1,0-0.2,0.1-0.3,0.1S96,33.2,96,33.3c0,0-0.1,0.1-0.2,0.1c-0.1,0.1-0.1,0.1-0.1,0.2    c0,0.1-0.1,0.1-0.1,0.2c0,0.1,0,0.1-0.1,0.2c0,0.1,0,0.1,0,0.3c0,0.3,0.1,0.4,0.2,0.6C95.7,35,95.9,35,96,35z"></path>			<path class="st0" d="M99,35.5v-5.3h0.7v0.5c0.4-0.4,0.8-0.6,1.3-0.6c0.3,0,0.5,0.1,0.6,0.3c0.1,0.2,0.2,0.5,0.2,0.8v4.2h-0.7    v-4.1c0-0.3,0-0.5-0.1-0.6c-0.1-0.1-0.2-0.2-0.4-0.2c-0.3,0-0.6,0.1-0.9,0.5v4.3L99,35.5L99,35.5z"></path>			<path class="st0" d="M104.5,35.6c-0.3,0-0.4,0-0.6-0.1c-0.2-0.1-0.3-0.1-0.4-0.3c-0.1-0.1-0.2-0.3-0.3-0.4    c-0.1-0.2-0.1-0.4-0.1-0.6c0-0.2,0-0.4,0-0.7v-1.2c0-0.4,0-0.7,0.1-0.9c0-0.3,0.1-0.5,0.2-0.7c0.1-0.2,0.3-0.3,0.4-0.4    c0.2-0.1,0.4-0.1,0.7-0.1c0.2,0,0.4,0,0.6,0.1c0.1,0.1,0.3,0.1,0.4,0.2c0.1,0.1,0.2,0.2,0.2,0.4c0.1,0.1,0.1,0.3,0.1,0.5    c0,0.1,0,0.4,0,0.6v0.3h-0.6v-0.3c0-0.4,0-0.8-0.1-0.9s-0.3-0.3-0.5-0.3c-0.3,0-0.5,0.1-0.6,0.3c-0.1,0.2-0.1,0.6-0.1,1.2v1.5    c0,0.5,0,0.9,0.1,1.1s0.3,0.3,0.6,0.3c0.1,0,0.2,0,0.3-0.1s0.1-0.1,0.2-0.1c0-0.1,0.1-0.1,0.1-0.3c0-0.1,0-0.2,0.1-0.4    c0-0.1,0-0.3,0-0.5v-0.3h0.6v0.3c0,0.2,0,0.4,0,0.6c0,0.2-0.1,0.3-0.1,0.5c0,0.2-0.1,0.3-0.2,0.4c-0.1,0.1-0.2,0.2-0.4,0.3    C104.9,35.5,104.7,35.6,104.5,35.6z"></path>			<path class="st0" d="M108.5,35.6c-0.5,0-0.9-0.1-1.1-0.5c-0.2-0.3-0.3-0.8-0.3-1.6v-1.3c0-0.5,0-0.9,0.1-1.2    c0.1-0.3,0.3-0.5,0.5-0.7c0.2-0.1,0.5-0.2,0.8-0.2c0.2,0,0.4,0,0.6,0.1c0.1,0.1,0.3,0.1,0.4,0.3c0.1,0.1,0.2,0.3,0.3,0.4    c0.1,0.2,0.1,0.4,0.1,0.6c0,0.2,0,0.5,0,0.8v0.5h-2.1v0.8c0,0.5,0,0.9,0.1,1.2s0.3,0.3,0.6,0.3c0.2,0,0.4-0.1,0.5-0.2    c0.1-0.1,0.2-0.4,0.2-0.8v-0.4h0.7v0.3c0,0.5-0.1,0.9-0.3,1.2C109.4,35.4,109,35.6,108.5,35.6z M107.8,32.4h1.5V32    c0-0.2,0-0.3,0-0.5c0-0.1,0-0.3-0.1-0.4s-0.1-0.2-0.1-0.3c0-0.1-0.1-0.1-0.2-0.1c-0.1,0-0.2-0.1-0.3-0.1c-0.3,0-0.5,0.1-0.6,0.3    c-0.1,0.2-0.2,0.6-0.2,1.1V32.4z"></path>			<path class="st0" d="M115.3,35.6c-0.5,0-0.9-0.1-1.3-0.5c-0.3-0.3-0.4-0.7-0.4-1.2c0-0.4,0.1-0.7,0.3-1.1    c0.2-0.4,0.5-0.7,0.9-1.1c0,0,0-0.1-0.1-0.1c-0.3-0.5-0.5-0.8-0.6-1.1c-0.1-0.3-0.2-0.5-0.2-0.8c0-0.5,0.1-0.9,0.4-1.2    s0.7-0.4,1.1-0.4c0.5,0,0.8,0.1,1.1,0.4c0.3,0.3,0.4,0.5,0.4,1c0,0.4-0.1,0.8-0.4,1.2c-0.3,0.4-0.7,0.8-1.1,1.2l1.4,2.2    c0.1-0.2,0.3-0.5,0.4-0.8c0.1-0.4,0.2-0.7,0.2-0.9h0.7c0,0.3-0.1,0.7-0.2,1.2s-0.4,0.8-0.6,1c0.3,0.3,0.5,0.5,0.8,0.5v0.7    c-0.1,0-0.1,0-0.2,0c-0.4,0-0.7-0.3-1.1-0.7c-0.2,0.2-0.4,0.4-0.7,0.5C115.9,35.5,115.6,35.6,115.3,35.6z M115.3,35    c0.4,0,0.8-0.2,1.2-0.6l-1.5-2.2c-0.3,0.3-0.5,0.6-0.6,0.9c-0.1,0.3-0.2,0.6-0.2,0.8c0,0.1,0,0.3,0,0.4c0,0.1,0.1,0.3,0.2,0.4    c0.1,0.1,0.2,0.2,0.3,0.3C115,35,115.1,35,115.3,35z M115.2,31.4c0.8-0.8,1.1-1.4,1.1-2c0-0.3-0.1-0.4-0.2-0.5    c-0.1-0.1-0.4-0.2-0.7-0.2c-0.3,0-0.5,0.1-0.7,0.3c-0.1,0.2-0.2,0.4-0.2,0.7c0,0.3,0,0.5,0.1,0.8C114.8,30.7,115,31,115.2,31.4z"></path>			<path class="st0" d="M122,35.5v-7.4h1.6c0.7,0,1.1,0.1,1.4,0.5c0.3,0.3,0.4,0.8,0.4,1.4c0,0.3,0,0.5-0.1,0.7    c0,0.2-0.1,0.4-0.3,0.5c-0.1,0.2-0.3,0.3-0.5,0.3c0.2,0.1,0.4,0.1,0.5,0.3c0.1,0.1,0.3,0.3,0.4,0.4c0.1,0.2,0.1,0.4,0.2,0.5    c0,0.2,0,0.4,0,0.6c0,0.3,0,0.5,0,0.7c0,0.2-0.1,0.4-0.2,0.6s-0.2,0.3-0.3,0.5c-0.1,0.1-0.3,0.2-0.5,0.3    c-0.2,0.1-0.4,0.1-0.7,0.1C123.8,35.5,122,35.5,122,35.5z M122.7,31.3h1c0.4,0,0.7-0.1,0.8-0.3c0.1-0.2,0.2-0.6,0.2-1    c0-0.5-0.1-0.8-0.3-1c-0.2-0.2-0.6-0.3-1.1-0.3h-0.7V31.3L122.7,31.3z M122.7,35h1c0.5,0,0.8-0.1,0.9-0.4    c0.2-0.3,0.3-0.7,0.3-1.2c0-1-0.4-1.5-1.2-1.5h-1L122.7,35L122.7,35z"></path>			<path class="st0" d="M128.3,35.6c-0.5,0-0.9-0.1-1.1-0.5c-0.2-0.3-0.3-0.8-0.3-1.6v-1.3c0-0.5,0-0.9,0.1-1.2    c0.1-0.3,0.3-0.5,0.5-0.7c0.2-0.1,0.5-0.2,0.8-0.2c0.2,0,0.4,0,0.6,0.1c0.1,0.1,0.3,0.1,0.4,0.3c0.1,0.1,0.2,0.3,0.3,0.4    c0.1,0.2,0.1,0.4,0.1,0.6c0,0.2,0,0.5,0,0.8v0.5h-2.1v0.8c0,0.5,0,0.9,0.1,1.2s0.3,0.3,0.6,0.3c0.2,0,0.4-0.1,0.5-0.2    c0.1-0.1,0.2-0.4,0.2-0.8v-0.4h0.7v0.3c0,0.5-0.1,0.9-0.3,1.2C129.1,35.4,128.8,35.6,128.3,35.6z M127.5,32.4h1.5V32    c0-0.2,0-0.3,0-0.5c0-0.1,0-0.3-0.1-0.4c0-0.1-0.1-0.2-0.1-0.3c0-0.1-0.1-0.1-0.2-0.1c-0.1,0-0.2-0.1-0.3-0.1    c-0.3,0-0.5,0.1-0.6,0.3c-0.1,0.2-0.2,0.6-0.2,1.1V32.4L127.5,32.4z"></path>			<path class="st0" d="M130.9,36.8v-0.5c0.3,0,0.5,0,0.7-0.1c0.1,0,0.3-0.1,0.3-0.2c0-0.1,0-0.1,0-0.2c0,0,0-0.1,0-0.2    c0-0.1-0.1-0.4-0.1-0.7c-0.1-0.3-0.3-1.1-0.6-2.5c-0.3-1.4-0.5-2.1-0.5-2.1h0.7l0.9,4.5l0.9-4.5h0.7l-1.3,5.6    c-0.1,0.3-0.2,0.6-0.5,0.7c-0.3,0.1-0.6,0.2-1.1,0.2C131,36.8,130.9,36.8,130.9,36.8z"></path>			<path class="st0" d="M137,35.5c-0.2,0.1-0.4,0.1-0.7,0.1s-0.5,0-0.7-0.1c-0.2-0.1-0.3-0.2-0.4-0.4s-0.2-0.4-0.2-0.6    c0-0.3-0.1-0.5-0.1-0.9v-1.4c0-0.7,0.1-1.2,0.3-1.5s0.6-0.5,1.1-0.5c0.5,0,0.9,0.1,1.1,0.5c0.2,0.3,0.3,0.8,0.3,1.5v1.4    c0,0.3,0,0.6-0.1,0.9s-0.1,0.4-0.2,0.6C137.3,35.2,137.1,35.4,137,35.5z M136.3,35.1c0.1,0,0.3,0,0.3-0.1c0.1,0,0.2-0.1,0.2-0.2    c0-0.1,0.1-0.2,0.1-0.3c0-0.1,0-0.3,0-0.4c0-0.1,0-0.3,0-0.5v-1.5c0-0.2,0-0.4,0-0.5s0-0.3,0-0.4s-0.1-0.3-0.1-0.3    c0-0.1-0.1-0.1-0.2-0.2c-0.1,0-0.2-0.1-0.3-0.1c-0.1,0-0.2,0-0.3,0c-0.1,0-0.1,0.1-0.2,0.1c-0.1,0.1-0.1,0.1-0.1,0.2    c0,0.1-0.1,0.2-0.1,0.3s0,0.3,0,0.3c0,0.1,0,0.3,0,0.4v1.5c0,0.1,0,0.3,0,0.4s0,0.2,0,0.3c0,0.1,0,0.2,0.1,0.3    c0,0.1,0.1,0.1,0.1,0.2c0,0.1,0.1,0.1,0.2,0.1C136,35.1,136.2,35.1,136.3,35.1z"></path>			<path class="st0" d="M139.1,35.5v-5.3h0.7v0.5c0.4-0.4,0.8-0.6,1.3-0.6c0.3,0,0.5,0.1,0.6,0.3c0.1,0.2,0.2,0.5,0.2,0.8v4.2h-0.7    v-4.1c0-0.3,0-0.5-0.1-0.6c-0.1-0.1-0.2-0.2-0.4-0.2c-0.3,0-0.6,0.1-0.9,0.5v4.3L139.1,35.5L139.1,35.5z"></path>			<path class="st0" d="M144.4,35.6c-0.5,0-0.8-0.2-1-0.5c-0.2-0.3-0.3-0.9-0.3-1.7v-1c0-0.3,0-0.5,0-0.8c0-0.2,0.1-0.4,0.1-0.6    c0-0.2,0.1-0.4,0.2-0.5c0.1-0.1,0.2-0.2,0.4-0.3c0.1-0.1,0.3-0.1,0.5-0.1c0.4,0,0.7,0.1,0.9,0.5v-2.5h0.7v7.4h-0.7v-0.4    C145.1,35.4,144.8,35.6,144.4,35.6z M144.5,35.1c0.3,0,0.5-0.1,0.8-0.4v-3.7c-0.3-0.3-0.5-0.4-0.8-0.4c-0.3,0-0.5,0.1-0.6,0.4    c-0.1,0.3-0.1,0.6-0.1,1.2v1.2c0,0.6,0,1,0.1,1.2C144.1,34.9,144.3,35.1,144.5,35.1z"></path>		</g>	</g>	<g>		<g>			<g>				<rect x="19" y="18.5" class="st1" width="10" height="10"></rect>				<g>					<polygon class="st2" points="22.4,20.2 22.1,20.2 22.1,18.2 20.3,18.2 20.3,15.9 20.6,15.9 20.6,17.9 22.4,17.9      "></polygon>					<path class="st2" d="M20.5,16.1c-0.3,0-0.5-0.3-0.5-0.5c0-0.3,0.3-0.5,0.5-0.5s0.5,0.3,0.5,0.5C21.1,15.8,20.8,16.1,20.5,16.1z       M20.5,15.2c-0.2,0-0.3,0.1-0.3,0.3c0,0.2,0.1,0.3,0.3,0.3c0.2,0,0.3-0.1,0.3-0.3S20.7,15.2,20.5,15.2z"></path>					<path class="st2" d="M22.9,17c-0.3,0-0.5-0.3-0.5-0.5s0.3-0.5,0.5-0.5s0.5,0.3,0.5,0.5S23.2,17,22.9,17z M22.9,16.1      c-0.2,0-0.3,0.1-0.3,0.3c0,0.1,0.1,0.3,0.3,0.3s0.3-0.1,0.3-0.3C23.2,16.3,23.1,16.1,22.9,16.1z"></path>					<path class="st2" d="M27.6,16.6c-0.3,0-0.5-0.3-0.5-0.5s0.3-0.5,0.5-0.5s0.5,0.3,0.5,0.5S27.9,16.6,27.6,16.6z M27.6,15.7      c-0.2,0-0.3,0.1-0.3,0.3c0,0.2,0.1,0.3,0.3,0.3s0.3-0.1,0.3-0.3C27.9,15.8,27.8,15.7,27.6,15.7z"></path>					<path class="st2" d="M25,17.6c-0.3,0-0.5-0.3-0.5-0.5s0.3-0.5,0.5-0.5c0.3,0,0.5,0.3,0.5,0.5S25.3,17.6,25,17.6z M25,16.8      c-0.2,0-0.3,0.1-0.3,0.3c0,0.2,0.1,0.3,0.3,0.3c0.1,0,0.3-0.1,0.3-0.3S25.1,16.8,25,16.8z"></path>					<path class="st2" d="M25.8,15.8c-0.3,0-0.5-0.3-0.5-0.5s0.3-0.5,0.5-0.5s0.5,0.3,0.5,0.5S26.1,15.8,25.8,15.8z M25.8,14.9      c-0.2,0-0.3,0.1-0.3,0.3c0,0.2,0.1,0.3,0.3,0.3s0.3-0.1,0.3-0.3S25.9,14.9,25.8,14.9z"></path>					<rect x="22.8" y="16.7" class="st2" width="0.3" height="3.4"></rect>					<rect x="24.8" y="17.5" class="st2" width="0.3" height="2.7"></rect>					<polygon class="st2" points="24,20.2 23.8,20.2 23.8,15.1 25.4,15.1 25.4,15.4 24,15.4      "></polygon>					<polygon class="st2" points="26,20.2 25.8,20.2 25.8,18.2 27.5,18.2 27.5,16.4 27.7,16.4 27.7,18.4 26,18.4      "></polygon>				</g>				<g>					<polygon class="st2" points="29.7,21.6 27.4,21.6 27.4,21.3 29.4,21.3 29.4,19.5 31.7,19.5 31.7,19.7 29.7,19.7      "></polygon>					<path class="st2" d="M31.2,22.6c-0.3,0-0.5-0.3-0.5-0.5s0.3-0.5,0.5-0.5s0.5,0.3,0.5,0.5S31.5,22.6,31.2,22.6z M31.2,21.8      c-0.2,0-0.3,0.1-0.3,0.3c0,0.1,0.1,0.3,0.3,0.3s0.3-0.1,0.3-0.3C31.5,21.9,31.3,21.8,31.2,21.8z"></path>					<path class="st2" d="M31.6,27.3c-0.3,0-0.5-0.3-0.5-0.5c0-0.3,0.3-0.5,0.5-0.5s0.5,0.3,0.5,0.5C32.2,27.1,31.9,27.3,31.6,27.3z       M31.6,26.5c-0.2,0-0.3,0.1-0.3,0.3c0,0.1,0.1,0.3,0.3,0.3c0.1,0,0.3-0.1,0.3-0.3C31.9,26.6,31.8,26.5,31.6,26.5z"></path>					<path class="st2" d="M30.5,24.7c-0.3,0-0.5-0.3-0.5-0.5s0.3-0.5,0.5-0.5s0.5,0.3,0.5,0.5C31.1,24.4,30.9,24.7,30.5,24.7z       M30.5,23.8c-0.2,0-0.3,0.1-0.3,0.3c0,0.1,0.1,0.3,0.3,0.3s0.3-0.1,0.3-0.3C30.8,24,30.7,23.8,30.5,23.8z"></path>					<rect x="27.4" y="22" class="st2" width="3.4" height="0.3"></rect>					<rect x="27.4" y="24" class="st2" width="2.7" height="0.3"></rect>					<polygon class="st2" points="31.2,26.9 29.2,26.9 29.2,25.2 27.4,25.2 27.4,24.9 29.4,24.9 29.4,26.6 31.2,26.6      "></polygon>				</g>				<g>					<polygon class="st2" points="27.1,31.1 26.8,31.1 26.8,29.1 25,29.1 25,26.8 25.3,26.8 25.3,28.8 27.1,28.8      "></polygon>					<path class="st2" d="M26.9,32c-0.3,0-0.5-0.3-0.5-0.5c0-0.3,0.3-0.5,0.5-0.5s0.5,0.3,0.5,0.5C27.4,31.8,27.2,32,26.9,32z       M26.9,31.2c-0.2,0-0.3,0.1-0.3,0.3c0,0.1,0.1,0.3,0.3,0.3s0.3-0.1,0.3-0.3C27.2,31.3,27,31.2,26.9,31.2z"></path>					<path class="st2" d="M24.5,31.1c-0.3,0-0.5-0.3-0.5-0.5s0.3-0.5,0.5-0.5c0.3,0,0.5,0.3,0.5,0.5S24.8,31.1,24.5,31.1z       M24.5,30.3c-0.2,0-0.3,0.1-0.3,0.3c0,0.1,0.1,0.3,0.3,0.3c0.1,0,0.3-0.1,0.3-0.3C24.7,30.4,24.6,30.3,24.5,30.3z"></path>					<path class="st2" d="M22.4,30.5c-0.3,0-0.5-0.3-0.5-0.5s0.3-0.5,0.5-0.5s0.5,0.3,0.5,0.5S22.7,30.5,22.4,30.5z M22.4,29.6      c-0.2,0-0.3,0.1-0.3,0.3c0,0.1,0.1,0.3,0.3,0.3c0.1,0,0.3-0.1,0.3-0.3C22.7,29.8,22.6,29.6,22.4,29.6z"></path>					<path class="st2" d="M21.6,32.3c-0.3,0-0.5-0.3-0.5-0.5c0-0.3,0.3-0.5,0.5-0.5s0.5,0.3,0.5,0.5C22.2,32.1,21.9,32.3,21.6,32.3z       M21.6,31.5c-0.2,0-0.3,0.1-0.3,0.3c0,0.1,0.1,0.3,0.3,0.3c0.1,0,0.3-0.1,0.3-0.3C21.9,31.6,21.8,31.5,21.6,31.5z"></path>					<rect x="24.3" y="26.8" class="st2" width="0.3" height="3.4"></rect>					<rect x="22.3" y="26.8" class="st2" width="0.3" height="2.7"></rect>					<polygon class="st2" points="23.6,31.9 22,31.9 22,31.6 23.3,31.6 23.3,26.8 23.6,26.8      "></polygon>				</g>				<g>					<polygon class="st2" points="18.8,27.5 16.5,27.5 16.5,27.2 18.5,27.2 18.5,25.4 20.8,25.4 20.8,25.6 18.8,25.6      "></polygon>					<path class="st2" d="M16.1,27.8c-0.3,0-0.5-0.3-0.5-0.5s0.3-0.5,0.5-0.5s0.5,0.3,0.5,0.5S16.5,27.8,16.1,27.8z M16.1,27      c-0.2,0-0.3,0.1-0.3,0.3c0,0.1,0.1,0.3,0.3,0.3c0.2,0,0.3-0.1,0.3-0.3C16.5,27.1,16.3,27,16.1,27z"></path>					<path class="st2" d="M17,25.4c-0.3,0-0.5-0.3-0.5-0.5c0-0.3,0.3-0.5,0.5-0.5s0.5,0.3,0.5,0.5C17.6,25.2,17.4,25.4,17,25.4z       M17,24.5c-0.2,0-0.3,0.1-0.3,0.3s0.1,0.3,0.3,0.3c0.2,0,0.3-0.1,0.3-0.3S17.2,24.5,17,24.5z"></path>					<path class="st2" d="M16.6,21.2c-0.3,0-0.5-0.3-0.5-0.5s0.3-0.5,0.5-0.5s0.5,0.3,0.5,0.5C17.2,20.9,16.9,21.2,16.6,21.2z       M16.6,20.4c-0.2,0-0.3,0.1-0.3,0.3s0.1,0.3,0.3,0.3c0.2,0,0.3-0.1,0.3-0.3C16.9,20.5,16.8,20.4,16.6,20.4z"></path>					<path class="st2" d="M15.9,22.6c-0.3,0-0.5-0.3-0.5-0.5c0-0.3,0.3-0.5,0.5-0.5s0.5,0.3,0.5,0.5C16.4,22.3,16.2,22.6,15.9,22.6z       M15.9,21.7c-0.2,0-0.3,0.1-0.3,0.3s0.1,0.3,0.3,0.3c0.2,0,0.3-0.1,0.3-0.3S16,21.7,15.9,21.7z"></path>					<rect x="17.4" y="24.7" class="st2" width="3.4" height="0.3"></rect>					<polygon class="st2" points="20.8,24 15.7,24 15.7,22.4 16,22.4 16,23.8 20.8,23.8      "></polygon>					<polygon class="st2" points="20.8,22.5 18.8,22.5 18.8,20.8 17,20.8 17,20.5 19.1,20.5 19.1,22.2 20.8,22.2      "></polygon>				</g>				<rect x="19.6" y="19.1" width="8.9" height="8.9"></rect>			</g>			<g>									<image style="overflow:visible;enable-background:new    ;" width="104" height="105" xlink:href="../Logo Options/Final/41D8BBD7.png" transform="matrix(8.757187e-02 0 0 8.757187e-02 19.5444 18.9276)">				</image>				<g>					<g>						<g>							<polygon class="st3" points="24,20.7 22.9,21.3 22.9,20.1        "></polygon>							<polygon class="st3" points="24.2,20.7 25.3,20.1 25.3,21.3        "></polygon>						</g>						<path class="st3" d="M24.9,20.4v0.4c1.2,0.4,2.1,1.5,2.1,2.8c0,1.6-1.3,2.9-2.9,2.9s-2.9-1.3-2.9-2.9c0-1.3,0.9-2.4,2.1-2.8       v-0.4c-1.4,0.4-2.5,1.7-2.5,3.2c0,1.8,1.5,3.3,3.3,3.3s3.3-1.5,3.3-3.3C27.4,22.1,26.4,20.8,24.9,20.4z"></path>					</g>				</g>			</g>		</g>					<linearGradient id="SVGID_1_" gradientUnits="userSpaceOnUse" x1="1" y1="719.5" x2="46.719" y2="719.5" gradientTransform="matrix(1 0 0 1 0 -696)">			<stop offset="0" style="stop-color:#0FD886"></stop>			<stop offset="1" style="stop-color:#0AD5EC"></stop>		</linearGradient>		<path class="st4" d="M24,46.5c-12.6,0-23-10.3-23-23c0-12.6,10.3-23,23-23c6.9,0,13.4,3.1,17.8,8.4c0.1,0.2,0.1,0.5,0,0.7   l-2.1,2.2c-0.1,0.1-0.2,0.1-0.4,0.1s-0.3-0.1-0.4-0.2C35.2,7.1,29.8,4.5,24,4.5c-10.5,0-19,8.5-19,19s8.5,19,19,19   c6.1,0,11.7-2.9,15.3-7.8c0.1-0.2,0.5-0.3,0.7-0.1c0.2,0.1,0.3,0.5,0.1,0.7c-3.8,5.1-9.8,8.2-16.1,8.2c-11,0-20-9-20-20   s9-20,20-20c5.9,0,11.5,2.6,15.3,7.2l1.5-1.5C36.6,4.3,30.5,1.5,24,1.5c-12.1,0-22,9.9-22,22s9.9,22,22,22   c6.9,0,13.3-3.1,17.5-8.6c0.1-0.2,0.5-0.3,0.7-0.1c0.2,0.1,0.3,0.5,0.1,0.7C37.8,43.2,31.2,46.5,24,46.5z"></path>					<linearGradient id="SVGID_00000114775930977966786560000010644125415452178311_" gradientUnits="userSpaceOnUse" x1="1.0602" y1="719.5" x2="46.7259" y2="719.5" gradientTransform="matrix(1 0 0 1 0 -696)">			<stop offset="0" style="stop-color:#0FD886"></stop>			<stop offset="1" style="stop-color:#0AD5EC"></stop>		</linearGradient>		<path style="fill:url(#SVGID_00000114775930977966786560000010644125415452178311_);" d="M24,43.5c-11,0-20-9-20-20s9-20,20-20   c6.1,0,11.8,2.7,15.6,7.6c0.2,0.2,0.1,0.5-0.1,0.7C39.3,12,39,12,38.8,11.8C35.2,7.2,29.8,4.5,24,4.5c-10.5,0-19,8.5-19,19   s8.5,19,19,19c6,0,11.4-2.7,15.1-7.4l-1.5-1.5c-3.2,4.3-8.2,6.9-13.6,6.9C14.6,40.5,7,32.9,7,23.6S14.6,6.7,24,6.7   c5.3,0,10.2,2.5,13.5,6.7c0.1,0.2,0.1,0.5-0.1,0.7c-0.2,0.1-0.5,0.1-0.7-0.1C33.6,9.9,29,7.6,24,7.6C15.2,7.6,8,14.7,8,23.5   s7.2,16,15.9,16c5.2,0,10.2-2.6,13.1-6.9c0.1-0.1,0.2-0.2,0.4-0.2c0.1,0,0.3,0,0.4,0.1l2.2,2.2c0.2,0.2,0.2,0.4,0,0.6   C36.3,40.4,30.3,43.5,24,43.5z"></path>					<linearGradient id="SVGID_00000057138666969261585740000017424639658790406075_" gradientUnits="userSpaceOnUse" x1="1.099" y1="719.5" x2="46.6993" y2="719.5" gradientTransform="matrix(1 0 0 1 0 -696)">			<stop offset="0" style="stop-color:#0FD886"></stop>			<stop offset="1" style="stop-color:#0AD5EC"></stop>		</linearGradient>		<path style="fill:url(#SVGID_00000057138666969261585740000017424639658790406075_);" d="M24,40.4c-9.3,0-16.9-7.6-16.9-16.9   S14.7,6.6,24,6.6c5.3,0,10.2,2.5,13.5,6.7c0.1,0.2,0.1,0.5,0,0.6l-2.2,2.2c-0.1,0.1-0.3,0.1-0.4,0.1c-0.1,0-0.3-0.1-0.4-0.2   c-2.4-3.4-6.4-5.5-10.6-5.5c-7.1,0-12.9,5.8-12.9,12.9S16.8,36.5,24,36.5c4.4,0,8.5-2.3,10.9-6c0.1-0.2,0.4-0.3,0.7-0.1   c0.2,0.1,0.3,0.4,0.1,0.7c-2.6,4-6.9,6.5-11.7,6.5c-7.7,0-13.9-6.2-13.9-13.9S16.3,9.7,24,9.7c4.3,0,8.3,2,11,5.4l1.5-1.4   c-3-3.8-7.6-6-12.4-6C15.2,7.7,8,14.8,8,23.6s7.2,16,15.9,16c5.2,0,10.2-2.6,13.1-6.9c0.1-0.2,0.4-0.3,0.7-0.1s0.3,0.4,0.1,0.7   C34.8,37.7,29.6,40.4,24,40.4z"></path>					<linearGradient id="SVGID_00000041279834330537238510000017258426210152078726_" gradientUnits="userSpaceOnUse" x1="5.0868" y1="719.5181" x2="45.4389" y2="719.5181" gradientTransform="matrix(1 0 0 1 0 -696)">			<stop offset="0" style="stop-color:#0FD886"></stop>			<stop offset="1" style="stop-color:#0AD5EC"></stop>		</linearGradient>		<path style="fill:url(#SVGID_00000041279834330537238510000017258426210152078726_);" d="M24,34.5c-6,0-11-5-11-11s4.9-11,11-11   c3.8,0,7.2,1.9,9.2,5.1c0.1,0.2,0.1,0.5-0.1,0.7c-0.2,0.1-0.5,0.1-0.7-0.1c-1.8-2.9-5-4.6-8.4-4.6c-5.5,0-10,4.5-10,10   s4.5,10,10,10c3.7,0,7-2,8.8-5.2c0.1-0.1,0.2-0.2,0.4-0.3c0.1,0,0.3,0,0.4,0.1l2.1,2.1c0.2,0.2,0.2,0.5,0,0.7s-0.5,0.2-0.7,0   l-1.7-1.7C31.3,32.5,27.8,34.5,24,34.5z"></path>					<linearGradient id="SVGID_00000166658879301670219360000015758987146294775222_" gradientUnits="userSpaceOnUse" x1="30.3085" y1="715.3076" x2="36.8289" y2="715.3076" gradientTransform="matrix(1 0 0 1 0 -696)">			<stop offset="0" style="stop-color:#0FD886"></stop>			<stop offset="1" style="stop-color:#0AD5EC"></stop>		</linearGradient>		<path style="fill:url(#SVGID_00000166658879301670219360000015758987146294775222_);" d="M33.4,21.2c-1,0-1.8-0.8-1.8-1.8   s0.8-1.8,1.8-1.8c1,0,1.8,0.8,1.8,1.8S34.4,21.2,33.4,21.2z M33.4,18.4c-0.5,0-0.9,0.4-0.9,0.9c0,0.5,0.4,0.9,0.9,0.9   s0.9-0.4,0.9-0.9C34.3,18.8,33.9,18.4,33.4,18.4z"></path>					<linearGradient id="SVGID_00000118362093750089906780000006077357075582214584_" gradientUnits="userSpaceOnUse" x1="9.009" y1="719.753" x2="12.0558" y2="719.753" gradientTransform="matrix(1 0 0 1 0 -696)">			<stop offset="0" style="stop-color:#0FD886"></stop>			<stop offset="1" style="stop-color:#0AD5EC"></stop>		</linearGradient>		<path style="fill:url(#SVGID_00000118362093750089906780000006077357075582214584_);" d="M12.1,23.8c0,0.8-0.7,1.5-1.5,1.5   c-0.8,0-1.5-0.7-1.5-1.5c0-0.8,0.7-1.5,1.5-1.5C11.4,22.2,12.1,22.9,12.1,23.8z"></path>					<linearGradient id="SVGID_00000116918649964464182500000001587472228718324396_" gradientUnits="userSpaceOnUse" x1="9.009" y1="701.3206" x2="12.0558" y2="701.3206" gradientTransform="matrix(1 0 0 1 0 -696)">			<stop offset="0" style="stop-color:#0FD886"></stop>			<stop offset="1" style="stop-color:#0AD5EC"></stop>		</linearGradient>		<path style="fill:url(#SVGID_00000116918649964464182500000001587472228718324396_);" d="M12.1,5.3c0,0.8-0.7,1.5-1.5,1.5   C9.7,6.8,9,6.2,9,5.3s0.7-1.5,1.5-1.5C11.4,3.8,12.1,4.5,12.1,5.3z"></path>					<linearGradient id="SVGID_00000014618812052318738420000011307164065060958860_" gradientUnits="userSpaceOnUse" x1="40.2718" y1="733.1978" x2="43.3226" y2="733.1978" gradientTransform="matrix(1 0 0 1 0 -696)">			<stop offset="0" style="stop-color:#0FD886"></stop>			<stop offset="1" style="stop-color:#0AD5EC"></stop>		</linearGradient>		<path style="fill:url(#SVGID_00000014618812052318738420000011307164065060958860_);" d="M43.3,37.2c0,0.8-0.7,1.5-1.5,1.5   s-1.5-0.7-1.5-1.5s0.7-1.5,1.5-1.5C42.6,35.7,43.3,36.4,43.3,37.2z"></path>		<g>			<path class="st12" d="M28.2,4.2c0,0.8-0.7,1.5-1.5,1.5S25.2,5,25.2,4.2s0.7-1.5,1.5-1.5S28.2,3.3,28.2,4.2z"></path>							<linearGradient id="SVGID_00000129913102714701158640000013579951423760894618_" gradientUnits="userSpaceOnUse" x1="24.673" y1="700.1461" x2="28.6775" y2="700.1461" gradientTransform="matrix(1 0 0 1 0 -696)">				<stop offset="0" style="stop-color:#0FD886"></stop>				<stop offset="1" style="stop-color:#0AD5EC"></stop>			</linearGradient>			<path style="fill:url(#SVGID_00000129913102714701158640000013579951423760894618_);" d="M26.7,6.2c-1.1,0-2-0.9-2-2    c0-1.1,0.9-2,2-2c1.1,0,2,0.9,2,2C28.7,5.3,27.8,6.2,26.7,6.2z M26.7,3.1c-0.6,0-1,0.5-1,1s0.5,1,1,1s1-0.5,1-1    S27.2,3.1,26.7,3.1z"></path>		</g>		<g>			<path class="st12" d="M13.1,38.7c0,0.6-0.5,1.1-1.1,1.1c-0.6,0-1.1-0.5-1.1-1.1s0.5-1.1,1.1-1.1C12.7,37.6,13.1,38.1,13.1,38.7z"></path>							<linearGradient id="SVGID_00000037663734686066858260000018016388923506794902_" gradientUnits="userSpaceOnUse" x1="10.4728" y1="734.6435" x2="13.9775" y2="734.6435" gradientTransform="matrix(1 0 0 1 0 -696)">				<stop offset="0" style="stop-color:#0FD886"></stop>				<stop offset="1" style="stop-color:#0AD5EC"></stop>			</linearGradient>			<path style="fill:url(#SVGID_00000037663734686066858260000018016388923506794902_);" d="M12.1,40.2c-0.9,0-1.6-0.7-1.6-1.6    c0-0.9,0.7-1.6,1.6-1.6s1.6,0.7,1.6,1.6C13.6,39.5,12.9,40.2,12.1,40.2z M12.1,38c-0.4,0-0.6,0.3-0.6,0.6c0,0.4,0.3,0.6,0.6,0.6    c0.3,0,0.6-0.3,0.6-0.6S12.4,38,12.1,38z"></path>		</g>	</g></g></svg>